<?xml version="1.0" standalone="no"?>
<!DOCTYPE svg PUBLIC "-//W3C//DTD SVG 20010904//EN"
 "http://www.w3.org/TR/2001/REC-SVG-20010904/DTD/svg10.dtd">
<svg version="1.0" xmlns="http://www.w3.org/2000/svg"
 width="150.000000pt" height="150.000000pt" viewBox="0 0 150.000000 150.000000"
 preserveAspectRatio="xMidYMid meet">

<g transform="translate(0.000000,150.000000) scale(0.100000,-0.100000)"
fill="#000000" stroke="none">
<path d="M657 1352 l-98 -110 -151 6 -151 5 6 -149 7 -149 -110 -99 -110 -100
30 -30 c16 -17 65 -62 109 -101 l79 -70 -5 -153 -6 -152 119 5 c65 3 131 8
146 10 23 4 40 -10 128 -105 56 -61 105 -110 109 -110 3 0 49 48 101 106 l95
107 154 -6 154 -7 -7 78 c-3 42 -7 110 -7 150 l-2 73 74 68 c41 37 90 82 109
99 l35 32 -55 52 c-30 29 -80 75 -109 102 l-54 50 7 149 6 150 -148 -7 -147
-6 -105 111 -105 111 -98 -110z m201 -52 l93 -99 102 5 c56 3 117 7 136 9 l33
4 -7 -142 -7 -142 101 -89 c56 -49 101 -92 100 -95 0 -3 -46 -46 -101 -96
l-101 -90 7 -139 7 -138 -139 7 -139 7 -89 -100 c-49 -55 -92 -101 -95 -101
-3 -1 -46 44 -95 99 l-89 100 -144 -5 -143 -6 5 23 c3 13 7 76 8 141 l2 119
-94 84 c-51 46 -95 87 -97 92 -1 5 42 52 97 103 l100 94 -7 133 c-4 74 -5 135
-2 136 3 1 65 -1 139 -4 l133 -5 90 98 c50 53 93 97 97 97 3 0 48 -45 99 -100z"/>
<path d="M785 1095 c-38 -37 -35 -102 7 -141 l31 -29 -23 33 c-35 47 -31 98 9
134 21 19 26 28 16 28 -9 0 -27 -11 -40 -25z"/>
<path d="M461 1033 c5 -26 12 -57 15 -68 4 -13 -2 -10 -17 11 -28 38 -76 61
-92 45 -8 -8 -7 -11 6 -11 19 0 85 -55 76 -64 -3 -3 -20 1 -36 9 -25 13 -36
13 -57 4 -36 -17 -33 -25 12 -27 47 -3 72 -11 72 -22 0 -5 -8 -8 -17 -8 -30 2
-73 -12 -73 -23 0 -8 22 -10 65 -7 50 3 65 1 67 -11 4 -20 -7 -230 -13 -235
-2 -2 -44 2 -94 10 -49 7 -92 13 -95 14 -2 0 12 -14 32 -30 l37 -31 -6 -128
-6 -128 125 5 124 5 86 -92 85 -92 84 92 84 92 128 -6 129 -6 -6 52 c-3 29 -6
85 -7 125 -2 70 -1 74 32 108 l33 34 -29 -5 c-37 -6 -199 -22 -242 -24 -21 -1
-33 3 -33 11 0 9 -3 8 -10 -2 -8 -12 -40 -15 -187 -16 -98 0 -188 2 -200 4
-21 4 -22 9 -25 129 -2 91 0 128 10 135 9 8 29 3 72 -15 l60 -27 -15 31 c-18
33 -31 41 -75 43 -29 1 -55 16 -28 16 12 0 88 64 88 74 0 9 -39 -2 -63 -18
-32 -22 -47 -15 -25 11 35 41 29 72 -7 33 -24 -27 -29 -25 -40 12 -16 53 -34
46 -24 -9z"/>
<path d="M618 773 c6 -2 12 -12 12 -22 0 -21 19 -41 38 -41 8 0 21 -8 28 -17
9 -12 16 -14 21 -7 5 6 20 14 36 18 23 5 29 3 36 -16 5 -13 6 -27 3 -32 -2 -5
1 -7 9 -4 23 8 11 69 -20 101 -26 27 -28 27 -63 12 -20 -8 -40 -19 -43 -25 -9
-14 -35 6 -35 26 0 8 -8 14 -17 13 -11 0 -13 -3 -5 -6z"/>
<path d="M561 753 c0 -10 -2 -41 -4 -69 -5 -50 -4 -52 19 -50 23 1 24 4 20 46
-6 56 -16 90 -27 90 -4 0 -8 -8 -8 -17z"/>
<path d="M935 753 c-11 -3 -28 -12 -37 -21 -16 -14 -20 -14 -36 1 -10 10 -24
17 -32 17 -7 0 -1 -9 13 -20 14 -11 32 -20 40 -20 20 0 41 -26 27 -35 -5 -3
-10 -11 -10 -17 0 -6 8 -1 19 10 10 13 30 22 46 22 24 0 27 -3 23 -25 -3 -13
-1 -22 3 -19 5 3 9 12 9 20 0 19 10 18 26 -3 7 -10 14 -13 14 -6 0 6 -4 15
-10 18 -5 3 -10 14 -10 24 0 19 -40 62 -56 60 -5 -1 -18 -4 -29 -6z"/>
<path d="M1105 720 c-4 -6 -15 -8 -26 -5 -24 8 -24 4 -1 -23 13 -15 22 -18 35
-11 11 7 24 6 37 -1 17 -9 19 -8 13 7 -14 40 -44 56 -58 33z"/>
</g>
</svg>
